<svg width="150" height="150" fill="none" xmlns="http://www.w3.org/2000/svg"><path d="M75 150c41.421 0 75-33.579 75-75S116.421 0 75 0 0 33.579 0 75s33.579 75 75 75z" fill="url(#paint0_radial)"/><path d="M150 75l-41.667-41.667-32.996 51.768-33.67 31.565L75 150c41.421 0 75-33.579 75-75z" fill="#F4BA22"/><path d="M56.734 33.333L41.667 48.401v68.265h66.666V33.333H56.734z" fill="#E9EFF4"/><path d="M108.333 33.333h-33.5v83.333h33.5V33.333zM56.734 48.4V33.334L41.667 48.401h15.067z" fill="#CFDBE6"/><path d="M100 57.576H50v1.515h50v-1.515zm0 8.334H50v1.514h50V65.91zm0 8.333H50v1.515h50v-1.515zm0 8.333H50v1.515h50v-1.515zm0 8.334H50v1.514h50V90.91zm-19.382 12.794c-1.721.221-2.536-.5-3.552-1.784-.21-.266-.396-.575-.687-.758-1.144-.722-2.252.173-3.254.729l-2.885 1.601c-.485.269-2.105 1.485-2.614 1.331.043.013-.8-3.35-1.055-3.819-.343-.628-1.157-.381-1.385.181-.314.774-.634 1.611-1.096 2.323-.868 1.336-2.577 2.484-4.292 1.799-.483-.193-.83-.558-1.065-1.017a6.26 6.26 0 001.6-2.041c.576-1.179 1.353-3.208.817-4.512-.48-1.17-1.445-1.177-2.302-.417-1.64 1.457-2.362 4.129-1.834 6.342-1.062.616-2.324.684-3.49-.414-.709-.669-1.782.401-1.07 1.071 1.556 1.466 3.484 1.526 5.112.73.252.44.566.842.961 1.176 2.988 2.521 5.655-.096 7.213-2.789.06.599.06 1.196.218 1.852.082.34.144.62.398.864 1.009.968 2.525-.175 3.411-.667l3.297-1.829c.99-.55 1.75-1.242 3.043-.407.217.14.299.496.505.653 1.262.964 2.356 1.529 4.004 1.316.955-.123.967-1.639.002-1.514zm-21.407-4.21c.277-.347.327-.928.486-.258.108.458-.403 1.579-.585 1.997-.19.436-.452.864-.764 1.255-.008-1.138.329-2.323.863-2.993z" fill="#D0D1D3"/><path d="M100 57.576H74.832v1.515H100v-1.515zm.001 8.334H74.833v1.514h25.168V65.91zm0 8.333H74.833v1.515h25.168v-1.515zm0 8.333H74.833v1.515h25.168v-1.515zm0 8.334H74.833v1.514h25.168V90.91zm-19.383 12.794c-1.722.221-2.536-.5-3.552-1.784-.21-.266-.396-.574-.687-.758-.526-.331-1.043-.32-1.547-.159v1.864c.377-.03.788.067 1.276.383.217.14.299.496.505.653 1.262.964 2.356 1.529 4.004 1.316.954-.123.966-1.64 0-1.515z" fill="#A6A8AA"/><path d="M89.078 97.91l-7.019-4.492 29.2-45.622a4.165 4.165 0 015.755-1.263 4.166 4.166 0 011.263 5.756l-29.2 45.622z" fill="#4176E0"/><path d="M117.014 46.533c-.021-.013-.042-.023-.063-.037L85.534 95.643l3.544 2.268 29.199-45.623a4.166 4.166 0 00-1.263-5.755z" fill="#1F57C6"/><path d="M81.076 102.683l8.002-4.772-7.019-4.493-.983 9.265z" fill="#F9B54C"/><path d="M81.085 102.603l-.009.08 8.002-4.772-3.544-2.269-4.449 6.961z" fill="#F4A200"/><defs><radialGradient id="paint0_radial" cx="0" cy="0" r="1" gradientUnits="userSpaceOnUse" gradientTransform="rotate(89.628 16.785 62.189) scale(105.002 105.105)"><stop stop-color="#FFE186"/><stop offset="1" stop-color="#FFBF1B"/></radialGradient></defs></svg>