<svg width="120" height="120" fill="none" xmlns="http://www.w3.org/2000/svg"><path d="M86.716 107.812H13.903V12.188h59.61L86.716 25.39v82.422z" fill="#ECECF1"/><path d="M86.716 25.39H73.513V12.187L86.716 25.39z" fill="#D3D3D8"/><path d="M87.003 98.514c10.545 0 19.094-8.548 19.094-19.094 0-10.545-8.549-19.094-19.094-19.094-10.546 0-19.094 8.549-19.094 19.094 0 10.546 8.548 19.094 19.094 19.094z" fill="#FFCC42"/><path d="M27.266 69.304H61.56a1.64 1.64 0 000-3.282H27.266a1.641 1.641 0 000 3.282zm0 9.837h20.547a1.641 1.641 0 000-3.281H27.265a1.64 1.64 0 000 3.281zm34.294 6.556H27.266a1.64 1.64 0 100 3.281H61.56a1.64 1.64 0 100-3.281zm-13.747 9.834H27.265a1.641 1.641 0 000 3.282h20.547a1.64 1.64 0 000-3.282z" fill="#3F5959"/><path d="M27.266 33.326h46.247V56.72H27.266V33.326z" fill="#FFCA3D"/><path d="M84.87 88.978a1.637 1.637 0 01-1.191-.514l-6.262-6.62a1.641 1.641 0 112.384-2.25l4.845 5.122 8.492-12.773a1.64 1.64 0 012.732 1.817l-9.634 14.486a1.635 1.635 0 01-1.366.732z" fill="#fff"/></svg>