<svg width="99" height="99" fill="none" xmlns="http://www.w3.org/2000/svg"><path d="M87.905 23.897L64.01 0H11.095v99h76.81V23.897z" fill="#ECECF1"/><path d="M64.009 0v23.897h23.896L64.01 0z" fill="#DBDBE0"/><path d="M26.457 27.31h15.362c.944 0 1.707-.763 1.707-1.707 0-.944-.763-1.707-1.707-1.707H26.457a1.706 1.706 0 100 3.414zm0 13.655h8.534a1.705 1.705 0 100-3.414h-8.534a1.706 1.706 0 100 3.414zm37.552-3.413H52.06a1.705 1.705 0 100 3.413h11.95a1.705 1.705 0 100-3.414zm-21.695.512a1.65 1.65 0 00-.495 1.195c0 .443.17.887.495 1.212.323.307.768.495 1.212.495.444 0 .887-.173 1.212-.513.307-.309.495-.75.495-1.194 0-.446-.188-.89-.495-1.212-.649-.632-1.792-.632-2.424.017zm31.441-.017c-.649-.632-1.775-.632-2.424 0a1.78 1.78 0 00-.495 1.212c0 .443.186.887.495 1.212.323.307.768.495 1.212.495.444 0 .888-.188 1.212-.495a1.8 1.8 0 00.495-1.212c0-.446-.188-.89-.495-1.212zM46.94 51.207H34.99c-.944 0-1.707.763-1.707 1.707 0 .944.763 1.707 1.707 1.707h11.95a1.706 1.706 0 100-3.414zm-21.695.495c-.324.323-.495.75-.495 1.212 0 .444.186.887.495 1.212.323.307.768.495 1.212.495.444 0 .887-.188 1.212-.495a1.73 1.73 0 000-2.424c-.649-.632-1.775-.632-2.424 0z" fill="#3F5959"/><path d="M31.825 66.852c-3.74 1.948-4.998 5.669-5.455 9.528-.707-.592-1.414-1.183-2.119-1.775-1.674-1.403-4.103.999-2.413 2.415l4.79 4.013c1.13.948 2.86.36 2.913-1.207.125-3.698.302-8.095 4.008-10.024 1.953-1.018.225-3.964-1.724-2.95zm15.939 8.678c-.888-1.587-2.803-2.374-4.588-1.869-2.33.659-5.088 3.486-6.718.181-.975-1.975-3.918-.244-2.948 1.722.877 1.779 2.56 3.07 4.555 3.298 1.037.118 1.907-.022 2.882-.386.693-.26 3.282-2.273 3.87-1.224 1.073 1.922 4.022.2 2.947-1.722z" fill="#3D72DC"/><path d="M68.353 49.654a2.798 2.798 0 003.838 1.589c2.378-1.13 4.86 1.35 3.73 3.73a2.8 2.8 0 001.59 3.838c2.481.883 2.481 4.392 0 5.274a2.798 2.798 0 00-1.59 3.84c1.13 2.377-1.35 4.859-3.73 3.729a2.8 2.8 0 00-3.838 1.589c-.883 2.482-4.392 2.482-5.275 0a2.798 2.798 0 00-3.839-1.59c-2.377 1.13-4.859-1.35-3.73-3.729a2.8 2.8 0 00-1.588-3.839c-2.482-.882-2.482-4.391 0-5.274a2.798 2.798 0 001.589-3.839c-1.13-2.377 1.35-4.86 3.73-3.73a2.8 2.8 0 003.838-1.588c.883-2.48 4.392-2.48 5.275 0z" fill="#FFCC42"/><path d="M72.192 71.654a2.8 2.8 0 00-3.84 1.589c-.882 2.482-4.391 2.482-5.274 0a2.797 2.797 0 00-3.838-1.59c-.118.057-.234.066-.352.105v18.708l6.828-6.828 6.827 6.828v-18.71c-.118-.037-.234-.047-.352-.102z" fill="#3D72DC"/></svg>