<svg width="150" height="150" fill="none" xmlns="http://www.w3.org/2000/svg"><path d="M75 150c41.421 0 75-33.579 75-75S116.421 0 75 0 0 33.579 0 75s33.579 75 75 75z" fill="url(#paint0_radial)"/><path d="M149.146 86.351l-40.055-40.055-41.835 38.468-28.043 20.447 44.305 44.305c33.664-3.807 60.576-29.894 65.628-63.165z" fill="#F4BA22"/><path d="M96.128 33.333h-55.22v50h68.183V46.296L96.128 33.333z" fill="#fff"/><path d="M109.091 46.296L96.128 33.333H74.832v50h34.259V46.296z" fill="#E9EFF4"/><path d="M104.398 108.333H45.602a8.102 8.102 0 01-8.102-8.102v-50.23h20.833l8.334 8.332H112.5v41.898a8.102 8.102 0 01-8.102 8.102z" fill="#4176E0"/><path d="M74.832 58.333v50h29.566a8.102 8.102 0 008.103-8.102V58.333h-37.67z" fill="#3D72DC"/><path d="M100 75H50v16.667h50V75z" fill="#FEE187"/><path d="M100.001 75H74.833v16.667h25.168V75z" fill="#FFC61B"/><path d="M96.128 46.296h12.963L96.128 33.333v12.963z" fill="#CFDBE6"/><defs><radialGradient id="paint0_radial" cx="0" cy="0" r="1" gradientUnits="userSpaceOnUse" gradientTransform="rotate(89.628 16.785 62.189) scale(105.002 105.105)"><stop stop-color="#FFE186"/><stop offset="1" stop-color="#FFBF1B"/></radialGradient></defs></svg>