<svg width="150" height="150" fill="none" xmlns="http://www.w3.org/2000/svg"><g clip-path="url(#clip0)"><path d="M75 149.999c41.422 0 75-33.578 75-75C150 33.58 116.422 0 75 0 33.58 0 .002 33.578.002 75c0 41.421 33.579 74.999 75 74.999z" fill="url(#paint0_radial)"/><path d="M149.904 78.82l-35.419-35.418-48.396 50.465-40.237 14.09 41.673 41.673c2.46.243 4.952.37 7.475.37 40.14-.001 72.914-31.534 74.904-71.18z" fill="#F4BA22"/><path d="M116.666 100H33.334V48.316a6.65 6.65 0 016.649-6.65h70.034a6.65 6.65 0 016.65 6.65V100h-.001z" fill="#1E2C46"/><path d="M116.666 48.317a6.65 6.65 0 00-6.65-6.65H74.705V100h41.961V48.317z" fill="#2A467A"/><path d="M112.374 46.464H37.626v57.071h74.748v-57.07z" fill="#fff"/><path d="M121.632 109.09H28.367A3.367 3.367 0 0125 105.723v-5.892a3.367 3.367 0 013.367-3.367h93.266A3.367 3.367 0 01125 99.83v5.892a3.367 3.367 0 01-3.368 3.367z" fill="#1E2C46"/><path d="M121.632 96.464H74.705v12.627h46.927a3.368 3.368 0 003.368-3.368v-5.892a3.368 3.368 0 00-3.368-3.367z" fill="#2A467A"/><path d="M69.253 88.76H43.12v-4.428a7.314 7.314 0 015.001-6.938l4.799-1.6h6.533l4.798 1.6a7.314 7.314 0 015.001 6.938v4.429z" fill="#fff"/><path d="M42.708 51.746h42.566v27.17H42.708v-27.17z" fill="#ECF0F1"/><path d="M88.422 61.718h10.122v6.461H88.422v-6.461zm0-9.972h10.122v6.46H88.422v-6.46zm0 19.944h10.122v6.46H88.422v-6.46z" fill="#C3CCCF"/><path d="M92.191 53.265l2.582 1.713-2.582 1.712v-3.424zm0 9.971l2.582 1.713-2.582 1.712v-3.424zm0 9.972l2.582 1.713-2.582 1.712v-3.424z" fill="#fff"/><path d="M37.644 46.29h7.61v2.861h-7.61v-2.86z" fill="#FF5B61"/><path d="M61.56 66.544h4.862l.394 4.099.699.56 1.475.94-2.868 6.773h-4.264l-2.867-6.774 1.475-.938.7-.561.394-4.099z" fill="#F0B97D"/><path d="M59.956 71.507l-4.03 1.286 4.425 6.123h6.636l3.866-6.498-2.848-.903-2.507 1.77h-3.006l-2.536-1.779z" fill="#F1F1F1"/><path d="M60.025 71.484l-7.128 2.275s-.923.48-1.2 1.938c-.192 1-.316 2.016-.45 3.218h11.274l-2.496-7.431zm16.709 7.432c-.133-1.203-.258-2.218-.449-3.218-.278-1.458-1.2-1.938-1.2-1.938l-7.08-2.244-2.524 7.4h11.253z" fill="#4176E0"/><path d="M60.025 71.484l-1.538.491-.296 3.9s.082.321.326.293l1.388.52s.09.092.009.207l-1.187.814.64 1.207h3.154l-2.496-7.431zm8.589 7.432l.64-1.207-1.188-.814c-.08-.115.01-.206.01-.206l1.387-.521c.244.028.326-.292.326-.292l-.294-3.888-1.491-.473-2.524 7.401h3.134z" fill="#fff"/><path d="M58.329 58.211c0 .381-.14.753-.128 1.12-1.303-.242-.674 3.628.063 4.16.058.043.203-.052.324-.13.256 1.424 2.438 5.227 3.825 6.828.385.445 2.741.437 3.124.017 1.42-1.565 3.6-5.412 3.857-6.844.122.077.266.172.326.129.737-.532 1.366-4.401.063-4.16.01-.366-.13-.739-.13-1.12-.071-3.005-2.794-4.504-5.662-4.518-2.866.013-5.59 1.513-5.662 4.518z" fill="#FED198"/><path d="M60.075 54.359c-.41-.047-1.896.407-2.073 1.977-.177 1.57-.094 3.017-.094 3.017s.87.22.98 1.111c.108.892.03.892.03.892l.314-.07.225-1.529c1.3-.815-.01-2.021 1.292-2.305 3.514 2.505 6.614 2.076 8.013.898 0 0-.326 1.233-.075 1.671.251.44.102 1.132.102 1.132l.327-.016s-.06-1.814.667-1.806c2.757-4.552-5.97-10.206-9.708-4.972z" fill="#666"/><path d="M61.133 70.057c.101.008-1.19 1.465-1.19 1.465l1.1 3.765 2.948-2.199c-1.621-.796-2.59-1.827-2.858-3.03z" fill="#fff"/><path d="M66.85 70.057c-.102.008 1.19 1.465 1.19 1.465l-1.1 3.765-2.95-2.199c1.622-.796 2.59-1.827 2.858-3.03h.001z" fill="#fff"/><path d="M62.386 66.672l.807-.549c.247.231 1.4.228 1.647-.003l.745.552c.36.268.733.359.826.773l.295 1.325c.093.416-.73 1.813-1.182 1.813h-3.197c-.452 0-1.075-1.333-1.002-1.753l.237-1.385c.072-.419.454-.52.825-.773zm1.397.31l-1.565.822s.073.91.276 1.194c.203.285 1-.054 1-.054s0-.713.231-.701h.522c.232-.011.232.701.232.701s.796.34.999.054c.203-.284.276-1.194.276-1.194l-1.565-.821-.202.056-.203-.056h-.001z" fill="#666"/><path d="M42.708 80.835h42.566v-1.92H42.708v1.92z" fill="#FBB429"/><path d="M42.708 75.376a4.5 4.5 0 110 9 4.5 4.5 0 010-9z" fill="#ECF0F1"/><path d="M42.708 75.668a4.207 4.207 0 110 8.414 4.207 4.207 0 010-8.413z" fill="#FF5B61"/><path d="M41.128 77.354l3.803 2.522-3.803 2.521v-5.043z" fill="#fff"/><path d="M72.003 80.835h13.27v-1.92h-13.27v1.92zM49.57 84.193h30.117v.948H49.57v-.948zm0 2.886h18.384v.949H49.57v-.95zm51.133-35.211h8.973v.949h-8.973v-.95zm0 2.07h5.477v.948h-5.477v-.949zm0 7.447h8.973v.948h-8.973v-.948zm0 2.069h5.477v.949h-5.477v-.95zm0 8.304h8.973v.948h-8.973v-.948zm0 2.069h5.477v.949h-5.477v-.95z" fill="#C8CACC"/><path d="M88.422 81.58h10.122v6.461H88.422v-6.46z" fill="#C3CCCF"/><path d="M92.191 83.099l2.582 1.712-2.582 1.713v-3.425z" fill="#fff"/><path d="M100.703 81.648h8.973v.95h-8.973v-.95zm0 2.07h5.477v.95h-5.477v-.95z" fill="#C8CACC"/><path d="M112.374 46.29h-67.12v2.861h67.12v-2.86z" fill="#ECF0F1"/><path d="M44.426 94.407h5.433v1.136h-5.433v-1.136zm55.714 0h5.434v1.136h-5.434v-1.136z" fill="#666"/></g><defs><radialGradient id="paint0_radial" cx="0" cy="0" r="1" gradientUnits="userSpaceOnUse" gradientTransform="rotate(89.628 16.786 62.189) scale(105.002 105.105)"><stop stop-color="#FFE186"/><stop offset="1" stop-color="#FFBF1B"/></radialGradient><clipPath id="clip0"/></defs></svg>