<svg width="90" height="90" fill="none" xmlns="http://www.w3.org/2000/svg"><path d="M79.478.394l.002 18.085-10.123 7.003-10.119-7.007L59.23.39c-6.274 3.544-10.52 10.264-10.52 17.992 0 3.104.743 6.026 1.97 8.665L2.353 75.38c-3.137 3.126-3.132 8.208-.007 11.336a8.018 8.018 0 0011.343-.002L62.6 37.799s4.38 1.217 6.75 1.219C80.757 39.027 90 29.775 90 18.373c-.002-7.717-4.246-14.437-10.522-17.98z" fill="#A2A9AF"/><path d="M7.986 83.21a2.133 2.133 0 100-4.266 2.133 2.133 0 000 4.266z" fill="#fff"/><path d="M69.642 66.769L42.69 39.817 38.807 43.7l26.951 26.952 2.38 6.562L80.534 89.61l8.066-8.066-12.396-12.396-6.562-2.38z" fill="#D6D9DB"/><path d="M37.685 50.854L2.87 16.042a8.6 8.6 0 010-12.167C6.224.524 11.676.518 15.03 3.883l34.816 34.812-12.16 12.16z" fill="#FFCA3D"/><path d="M39.867 40.877a2.133 2.133 0 01-3.016 0L7.431 11.456a2.133 2.133 0 113.015-3.016l29.421 29.42a2.133 2.133 0 010 3.017zm12.426-1.615l-14.04 14.04a2.133 2.133 0 01-3.016-3.015l14.04-14.04a2.133 2.133 0 113.016 3.015z" fill="#EFAE00"/></svg>