<?xml version="1.0" encoding="utf-8"?><svg xmlns="http://www.w3.org/2000/svg" xmlns:xlink="http://www.w3.org/1999/xlink"><symbol viewBox="0 0 72 24" id="arrow-right-long" xmlns="http://www.w3.org/2000/svg"><path d="M71.06 13.06a1.5 1.5 0 000-2.12l-9.545-9.547a1.5 1.5 0 10-2.122 2.122L67.88 12l-8.486 8.485a1.5 1.5 0 102.122 2.122l9.546-9.546zM0 13.5h70v-3H0v3z"/></symbol><symbol viewBox="0 0 10 15" id="arrow-right-small" xmlns="http://www.w3.org/2000/svg"><path d="M8.891 8.391l-5.59 5.59a1.26 1.26 0 01-1.782 0l7.372-5.59zm0 0a1.258 1.258 0 000-1.782m0 1.782V6.609m0 0l-5.59-5.59m5.59 5.59l-5.59-5.59m0 0a1.26 1.26 0 00-1.782 0h1.783zM1.52 12.2a1.26 1.26 0 000 1.782V1.019a1.26 1.26 0 000 1.783L6.218 7.5l-4.699 4.698z"/></symbol><symbol viewBox="0 0 32 19" id="arrow-slider" xmlns="http://www.w3.org/2000/svg"><path d="M30.884 10.263a1.25 1.25 0 000-1.768L22.929.54a1.25 1.25 0 10-1.768 1.768l7.071 7.07-7.07 7.072a1.25 1.25 0 101.767 1.768l7.955-7.955zM0 10.629h30v-2.5H0v2.5z"/></symbol><symbol viewBox="0 0 32 32" id="arrow-sm-right" xmlns="http://www.w3.org/2000/svg"><path d="M24.291 14.276L14.705 4.69a2.267 2.267 0 00-3.195 0l-.8.8a2.266 2.266 0 000 3.194L18.024 16l-7.315 7.315a2.266 2.266 0 000 3.194l.8.8a2.265 2.265 0 003.195 0l9.586-9.587a2.24 2.24 0 00.647-1.723 2.239 2.239 0 00-.646-1.723z"/></symbol><symbol viewBox="0 0 27 21" id="check" xmlns="http://www.w3.org/2000/svg"><path d="M23.513 1.584L8.89 16.175l-5.403-5.391a1.752 1.752 0 00-2.474 0 1.745 1.745 0 000 2.472l6.64 6.625a1.752 1.752 0 002.474 0l15.86-15.825a1.746 1.746 0 000-2.472 1.752 1.752 0 00-2.474 0z"/></symbol><symbol viewBox="0 0 22 23" id="close" xmlns="http://www.w3.org/2000/svg"><path d="M12.946 11.4l8.65-8.633a1.37 1.37 0 000-1.941 1.377 1.377 0 00-1.945 0l-8.65 8.632L2.348.826a1.377 1.377 0 00-1.946 0 1.37 1.37 0 000 1.94L9.055 11.4.403 20.032a1.37 1.37 0 00.973 2.343c.352 0 .704-.134.973-.402L11 13.34l8.651 8.633a1.373 1.373 0 001.946 0 1.37 1.37 0 000-1.942L12.946 11.4z" fill-opacity=".25"/></symbol><symbol viewBox="0 0 120 120" id="contract-1" xmlns="http://www.w3.org/2000/svg"><path d="M86.716 107.812H13.903V12.188h59.61L86.716 25.39v82.422z"/><path d="M86.716 25.39H73.513V12.187L86.716 25.39zM87.003 98.514c10.545 0 19.094-8.548 19.094-19.094 0-10.545-8.549-19.094-19.094-19.094-10.546 0-19.094 8.549-19.094 19.094 0 10.546 8.548 19.094 19.094 19.094zM27.266 69.304H61.56a1.64 1.64 0 000-3.282H27.266a1.641 1.641 0 000 3.282zm0 9.837h20.547a1.641 1.641 0 000-3.281H27.265a1.64 1.64 0 000 3.281zm34.294 6.556H27.266a1.64 1.64 0 100 3.281H61.56a1.64 1.64 0 100-3.281zm-13.747 9.834H27.265a1.641 1.641 0 000 3.282h20.547a1.64 1.64 0 000-3.282zM27.266 33.326h46.247V56.72H27.266V33.326z"/><path d="M84.87 88.978a1.637 1.637 0 01-1.191-.514l-6.262-6.62a1.641 1.641 0 112.384-2.25l4.845 5.122 8.492-12.773a1.64 1.64 0 012.732 1.817l-9.634 14.486a1.635 1.635 0 01-1.366.732z"/></symbol><symbol viewBox="0 0 150 150" id="contract-2" xmlns="http://www.w3.org/2000/svg"><path d="M75 150c41.421 0 75-33.579 75-75S116.421 0 75 0 0 33.579 0 75s33.579 75 75 75z"/><path d="M150 75l-41.667-41.667-32.996 51.768-33.67 31.565L75 150c41.421 0 75-33.579 75-75z"/><path d="M56.734 33.333L41.667 48.401v68.265h66.666V33.333H56.734z"/><path d="M108.333 33.333h-33.5v83.333h33.5V33.333zM56.734 48.4V33.334L41.667 48.401h15.067z"/><path d="M100 57.576H50v1.515h50v-1.515zm0 8.334H50v1.514h50V65.91zm0 8.333H50v1.515h50v-1.515zm0 8.333H50v1.515h50v-1.515zm0 8.334H50v1.514h50V90.91zm-19.382 12.794c-1.721.221-2.536-.5-3.552-1.784-.21-.266-.396-.575-.687-.758-1.144-.722-2.252.173-3.254.729l-2.885 1.601c-.485.269-2.105 1.485-2.614 1.331.043.013-.8-3.35-1.055-3.819-.343-.628-1.157-.381-1.385.181-.314.774-.634 1.611-1.096 2.323-.868 1.336-2.577 2.484-4.292 1.799-.483-.193-.83-.558-1.065-1.017a6.26 6.26 0 001.6-2.041c.576-1.179 1.353-3.208.817-4.512-.48-1.17-1.445-1.177-2.302-.417-1.64 1.457-2.362 4.129-1.834 6.342-1.062.616-2.324.684-3.49-.414-.709-.669-1.782.401-1.07 1.071 1.556 1.466 3.484 1.526 5.112.73.252.44.566.842.961 1.176 2.988 2.521 5.655-.096 7.213-2.789.06.599.06 1.196.218 1.852.082.34.144.62.398.864 1.009.968 2.525-.175 3.411-.667l3.297-1.829c.99-.55 1.75-1.242 3.043-.407.217.14.299.496.505.653 1.262.964 2.356 1.529 4.004 1.316.955-.123.967-1.639.002-1.514zm-21.407-4.21c.277-.347.327-.928.486-.258.108.458-.403 1.579-.585 1.997-.19.436-.452.864-.764 1.255-.008-1.138.329-2.323.863-2.993z"/><path d="M100 57.576H74.832v1.515H100v-1.515zm.001 8.334H74.833v1.514h25.168V65.91zm0 8.333H74.833v1.515h25.168v-1.515zm0 8.333H74.833v1.515h25.168v-1.515zm0 8.334H74.833v1.514h25.168V90.91zm-19.383 12.794c-1.722.221-2.536-.5-3.552-1.784-.21-.266-.396-.574-.687-.758-.526-.331-1.043-.32-1.547-.159v1.864c.377-.03.788.067 1.276.383.217.14.299.496.505.653 1.262.964 2.356 1.529 4.004 1.316.954-.123.966-1.64 0-1.515z"/><path d="M89.078 97.91l-7.019-4.492 29.2-45.622a4.165 4.165 0 015.755-1.263 4.166 4.166 0 011.263 5.756l-29.2 45.622z"/><path d="M117.014 46.533c-.021-.013-.042-.023-.063-.037L85.534 95.643l3.544 2.268 29.199-45.623a4.166 4.166 0 00-1.263-5.755z"/><path d="M81.076 102.683l8.002-4.772-7.019-4.493-.983 9.265z"/><path d="M81.085 102.603l-.009.08 8.002-4.772-3.544-2.269-4.449 6.961z"/><defs><radialGradient id="ahpaint0_radial" cx="0" cy="0" r="1" gradientUnits="userSpaceOnUse" gradientTransform="rotate(89.628 16.785 62.189) scale(105.002 105.105)"><stop stop-color="#FFE186"/><stop offset="1" stop-color="#FFBF1B"/></radialGradient></defs></symbol><symbol viewBox="0 0 99 99" id="diploma-1" xmlns="http://www.w3.org/2000/svg"><path d="M87.905 23.897L64.01 0H11.095v99h76.81V23.897z"/><path d="M64.009 0v23.897h23.896L64.01 0zM26.457 27.31h15.362c.944 0 1.707-.763 1.707-1.707 0-.944-.763-1.707-1.707-1.707H26.457a1.706 1.706 0 100 3.414zm0 13.655h8.534a1.705 1.705 0 100-3.414h-8.534a1.706 1.706 0 100 3.414zm37.552-3.413H52.06a1.705 1.705 0 100 3.413h11.95a1.705 1.705 0 100-3.414zm-21.695.512a1.65 1.65 0 00-.495 1.195c0 .443.17.887.495 1.212.323.307.768.495 1.212.495.444 0 .887-.173 1.212-.513.307-.309.495-.75.495-1.194 0-.446-.188-.89-.495-1.212-.649-.632-1.792-.632-2.424.017zm31.441-.017c-.649-.632-1.775-.632-2.424 0a1.78 1.78 0 00-.495 1.212c0 .443.186.887.495 1.212.323.307.768.495 1.212.495.444 0 .888-.188 1.212-.495a1.8 1.8 0 00.495-1.212c0-.446-.188-.89-.495-1.212zM46.94 51.207H34.99c-.944 0-1.707.763-1.707 1.707 0 .944.763 1.707 1.707 1.707h11.95a1.706 1.706 0 100-3.414zm-21.695.495c-.324.323-.495.75-.495 1.212 0 .444.186.887.495 1.212.323.307.768.495 1.212.495.444 0 .887-.188 1.212-.495a1.73 1.73 0 000-2.424c-.649-.632-1.775-.632-2.424 0zM31.825 66.852c-3.74 1.948-4.998 5.669-5.455 9.528-.707-.592-1.414-1.183-2.119-1.775-1.674-1.403-4.103.999-2.413 2.415l4.79 4.013c1.13.948 2.86.36 2.913-1.207.125-3.698.302-8.095 4.008-10.024 1.953-1.018.225-3.964-1.724-2.95zm15.939 8.678c-.888-1.587-2.803-2.374-4.588-1.869-2.33.659-5.088 3.486-6.718.181-.975-1.975-3.918-.244-2.948 1.722.877 1.779 2.56 3.07 4.555 3.298 1.037.118 1.907-.022 2.882-.386.693-.26 3.282-2.273 3.87-1.224 1.073 1.922 4.022.2 2.947-1.722zM68.353 49.654a2.798 2.798 0 003.838 1.589c2.378-1.13 4.86 1.35 3.73 3.73a2.8 2.8 0 001.59 3.838c2.481.883 2.481 4.392 0 5.274a2.798 2.798 0 00-1.59 3.84c1.13 2.377-1.35 4.859-3.73 3.729a2.8 2.8 0 00-3.838 1.589c-.883 2.482-4.392 2.482-5.275 0a2.798 2.798 0 00-3.839-1.59c-2.377 1.13-4.859-1.35-3.73-3.729a2.8 2.8 0 00-1.588-3.839c-2.482-.882-2.482-4.391 0-5.274a2.798 2.798 0 001.589-3.839c-1.13-2.377 1.35-4.86 3.73-3.73a2.8 2.8 0 003.838-1.588c.883-2.48 4.392-2.48 5.275 0z"/><path d="M72.192 71.654a2.8 2.8 0 00-3.84 1.589c-.882 2.482-4.391 2.482-5.274 0a2.797 2.797 0 00-3.838-1.59c-.118.057-.234.066-.352.105v18.708l6.828-6.828 6.827 6.828v-18.71c-.118-.037-.234-.047-.352-.102z"/></symbol><symbol viewBox="0 0 15 15" id="envelope-1" xmlns="http://www.w3.org/2000/svg"><path d="M1.44 5.24c.19.134.761.532 1.716 1.193.954.661 1.685 1.17 2.193 1.527l.355.256a9.533 9.533 0 00.888.59c.17.1.33.176.481.226.15.05.29.075.419.075h.016c.129 0 .268-.025.419-.075.15-.05.311-.126.481-.226.17-.1.316-.191.436-.272.12-.081.27-.187.452-.318.18-.132.3-.216.355-.256l3.918-2.72a3.975 3.975 0 001.02-1.03A2.21 2.21 0 0015 2.947c0-.369-.133-.684-.398-.946a1.294 1.294 0 00-.941-.394H1.339c-.43 0-.76.145-.992.435C.116 2.333 0 2.696 0 3.131c0 .351.154.732.46 1.142.307.41.634.733.98.967z"/><path d="M14.163 6.136a174.114 174.114 0 00-4.169 2.888 20.05 20.05 0 01-.774.548 4.778 4.778 0 01-.79.401c-.33.137-.637.205-.921.205h-.017a2.41 2.41 0 01-.921-.205 4.78 4.78 0 01-.791-.401 19.824 19.824 0 01-.774-.548c-.754-.553-2.14-1.516-4.16-2.888A4.434 4.434 0 010 5.407v6.646c0 .369.131.684.393.946.263.263.578.394.946.394h12.322c.368 0 .683-.131.946-.394a1.29 1.29 0 00.393-.946V5.407c-.24.268-.519.511-.837.729z"/></symbol><symbol viewBox="0 0 20 20" id="fb" xmlns="http://www.w3.org/2000/svg"><g clip-path="url(#akclip0)"><path d="M15 .004L12.405 0C9.492 0 7.609 1.932 7.609 4.922v2.27H5.001a.408.408 0 00-.407.407v3.288c0 .226.182.408.407.408H7.61v8.297c0 .225.182.408.408.408h3.402a.408.408 0 00.408-.408v-8.297h3.049a.408.408 0 00.408-.408V7.6a.409.409 0 00-.407-.408h-3.05V5.268c0-.925.22-1.394 1.425-1.394L15 3.873a.408.408 0 00.407-.408V.412A.408.408 0 0015 .004z"/></g><defs><clipPath id="akclip0"><path d="M0 0h20v20H0z"/></clipPath></defs></symbol><symbol viewBox="0 0 150 150" id="folder-2" xmlns="http://www.w3.org/2000/svg"><path d="M75 150c41.421 0 75-33.579 75-75S116.421 0 75 0 0 33.579 0 75s33.579 75 75 75z"/><path d="M149.146 86.351l-40.055-40.055-41.835 38.468-28.043 20.447 44.305 44.305c33.664-3.807 60.576-29.894 65.628-63.165z"/><path d="M96.128 33.333h-55.22v50h68.183V46.296L96.128 33.333z"/><path d="M109.091 46.296L96.128 33.333H74.832v50h34.259V46.296z"/><path d="M104.398 108.333H45.602a8.102 8.102 0 01-8.102-8.102v-50.23h20.833l8.334 8.332H112.5v41.898a8.102 8.102 0 01-8.102 8.102z"/><path d="M74.832 58.333v50h29.566a8.102 8.102 0 008.103-8.102V58.333h-37.67z"/><path d="M100 75H50v16.667h50V75z"/><path d="M100.001 75H74.833v16.667h25.168V75zM96.128 46.296h12.963L96.128 33.333v12.963z"/><defs><radialGradient id="alpaint0_radial" cx="0" cy="0" r="1" gradientUnits="userSpaceOnUse" gradientTransform="rotate(89.628 16.785 62.189) scale(105.002 105.105)"><stop stop-color="#FFE186"/><stop offset="1" stop-color="#FFBF1B"/></radialGradient></defs></symbol><symbol viewBox="0 0 8 22" id="height" xmlns="http://www.w3.org/2000/svg"><path d="M3.934.647a.5.5 0 01.707 0l3.182 3.181a.5.5 0 01-.707.708L4.288 1.707 1.459 4.536a.5.5 0 01-.707-.708L3.934.647zm-.146 15.486V1h1v15.133h-1z"/><path d="M3.89 21.62a.5.5 0 00.707 0l3.182-3.183a.5.5 0 10-.707-.707l-2.828 2.828-2.829-2.828a.5.5 0 00-.707.707L3.89 21.62zM3.744 6.132v15.133h1V6.133h-1z"/></symbol><symbol viewBox="0 0 20 20" id="in" xmlns="http://www.w3.org/2000/svg"><path d="M13.75 0h-7.5A6.25 6.25 0 000 6.25v7.5A6.25 6.25 0 006.25 20h7.5A6.25 6.25 0 0020 13.75v-7.5A6.25 6.25 0 0013.75 0zm4.375 13.75a4.38 4.38 0 01-4.375 4.375h-7.5a4.38 4.38 0 01-4.375-4.375v-7.5A4.38 4.38 0 016.25 1.875h7.5a4.38 4.38 0 014.375 4.375v7.5z"/><path d="M10 5a5 5 0 100 10 5 5 0 000-10zm0 8.125A3.13 3.13 0 016.875 10 3.129 3.129 0 0110 6.875 3.129 3.129 0 0113.125 10 3.13 3.13 0 0110 13.125zm5.375-7.834a.666.666 0 100-1.332.666.666 0 000 1.332z"/></symbol><symbol viewBox="0 0 150 150" id="laptop-2" xmlns="http://www.w3.org/2000/svg"><g clip-path="url(#aoclip0)"><path d="M75 149.999c41.422 0 75-33.578 75-75C150 33.58 116.422 0 75 0 33.58 0 .002 33.578.002 75c0 41.421 33.579 74.999 75 74.999z"/><path d="M149.904 78.82l-35.419-35.418-48.396 50.465-40.237 14.09 41.673 41.673c2.46.243 4.952.37 7.475.37 40.14-.001 72.914-31.534 74.904-71.18z"/><path d="M116.666 100H33.334V48.316a6.65 6.65 0 016.649-6.65h70.034a6.65 6.65 0 016.65 6.65V100h-.001z"/><path d="M116.666 48.317a6.65 6.65 0 00-6.65-6.65H74.705V100h41.961V48.317z"/><path d="M112.374 46.464H37.626v57.071h74.748v-57.07z"/><path d="M121.632 109.09H28.367A3.367 3.367 0 0125 105.723v-5.892a3.367 3.367 0 013.367-3.367h93.266A3.367 3.367 0 01125 99.83v5.892a3.367 3.367 0 01-3.368 3.367z"/><path d="M121.632 96.464H74.705v12.627h46.927a3.368 3.368 0 003.368-3.368v-5.892a3.368 3.368 0 00-3.368-3.367zM69.253 88.76H43.12v-4.428a7.314 7.314 0 015.001-6.938l4.799-1.6h6.533l4.798 1.6a7.314 7.314 0 015.001 6.938v4.429z"/><path d="M42.708 51.746h42.566v27.17H42.708v-27.17zM88.422 61.718h10.122v6.461H88.422v-6.461zm0-9.972h10.122v6.46H88.422v-6.46zm0 19.944h10.122v6.46H88.422v-6.46z"/><path d="M92.191 53.265l2.582 1.713-2.582 1.712v-3.424zm0 9.971l2.582 1.713-2.582 1.712v-3.424zm0 9.972l2.582 1.713-2.582 1.712v-3.424zM37.644 46.29h7.61v2.861h-7.61v-2.86zM61.56 66.544h4.862l.394 4.099.699.56 1.475.94-2.868 6.773h-4.264l-2.867-6.774 1.475-.938.7-.561.394-4.099z"/><path d="M59.956 71.507l-4.03 1.286 4.425 6.123h6.636l3.866-6.498-2.848-.903-2.507 1.77h-3.006l-2.536-1.779z"/><path d="M60.025 71.484l-7.128 2.275s-.923.48-1.2 1.938c-.192 1-.316 2.016-.45 3.218h11.274l-2.496-7.431zm16.709 7.432c-.133-1.203-.258-2.218-.449-3.218-.278-1.458-1.2-1.938-1.2-1.938l-7.08-2.244-2.524 7.4h11.253z"/><path d="M60.025 71.484l-1.538.491-.296 3.9s.082.321.326.293l1.388.52s.09.092.009.207l-1.187.814.64 1.207h3.154l-2.496-7.431zm8.589 7.432l.64-1.207-1.188-.814c-.08-.115.01-.206.01-.206l1.387-.521c.244.028.326-.292.326-.292l-.294-3.888-1.491-.473-2.524 7.401h3.134zM58.329 58.211c0 .381-.14.753-.128 1.12-1.303-.242-.674 3.628.063 4.16.058.043.203-.052.324-.13.256 1.424 2.438 5.227 3.825 6.828.385.445 2.741.437 3.124.017 1.42-1.565 3.6-5.412 3.857-6.844.122.077.266.172.326.129.737-.532 1.366-4.401.063-4.16.01-.366-.13-.739-.13-1.12-.071-3.005-2.794-4.504-5.662-4.518-2.866.013-5.59 1.513-5.662 4.518z"/><path d="M60.075 54.359c-.41-.047-1.896.407-2.073 1.977-.177 1.57-.094 3.017-.094 3.017s.87.22.98 1.111c.108.892.03.892.03.892l.314-.07.225-1.529c1.3-.815-.01-2.021 1.292-2.305 3.514 2.505 6.614 2.076 8.013.898 0 0-.326 1.233-.075 1.671.251.44.102 1.132.102 1.132l.327-.016s-.06-1.814.667-1.806c2.757-4.552-5.97-10.206-9.708-4.972zM61.133 70.057c.101.008-1.19 1.465-1.19 1.465l1.1 3.765 2.948-2.199c-1.621-.796-2.59-1.827-2.858-3.03z"/><path d="M66.85 70.057c-.102.008 1.19 1.465 1.19 1.465l-1.1 3.765-2.95-2.199c1.622-.796 2.59-1.827 2.858-3.03h.001zM62.386 66.672l.807-.549c.247.231 1.4.228 1.647-.003l.745.552c.36.268.733.359.826.773l.295 1.325c.093.416-.73 1.813-1.182 1.813h-3.197c-.452 0-1.075-1.333-1.002-1.753l.237-1.385c.072-.419.454-.52.825-.773zm1.397.31l-1.565.822s.073.91.276 1.194c.203.285 1-.054 1-.054s0-.713.231-.701h.522c.232-.011.232.701.232.701s.796.34.999.054c.203-.284.276-1.194.276-1.194l-1.565-.821-.202.056-.203-.056h-.001zM42.708 80.835h42.566v-1.92H42.708v1.92z"/><path d="M42.708 75.376a4.5 4.5 0 110 9 4.5 4.5 0 010-9z"/><path d="M42.708 75.668a4.207 4.207 0 110 8.414 4.207 4.207 0 010-8.413z"/><path d="M41.128 77.354l3.803 2.522-3.803 2.521v-5.043zM72.003 80.835h13.27v-1.92h-13.27v1.92zM49.57 84.193h30.117v.948H49.57v-.948zm0 2.886h18.384v.949H49.57v-.95zm51.133-35.211h8.973v.949h-8.973v-.95zm0 2.07h5.477v.948h-5.477v-.949zm0 7.447h8.973v.948h-8.973v-.948zm0 2.069h5.477v.949h-5.477v-.95zm0 8.304h8.973v.948h-8.973v-.948zm0 2.069h5.477v.949h-5.477v-.95zM88.422 81.58h10.122v6.461H88.422v-6.46z"/><path d="M92.191 83.099l2.582 1.712-2.582 1.713v-3.425zM100.703 81.648h8.973v.95h-8.973v-.95zm0 2.07h5.477v.95h-5.477v-.95zM112.374 46.29h-67.12v2.861h67.12v-2.86zM44.426 94.407h5.433v1.136h-5.433v-1.136zm55.714 0h5.434v1.136h-5.434v-1.136z"/></g><defs><radialGradient id="aopaint0_radial" cx="0" cy="0" r="1" gradientUnits="userSpaceOnUse" gradientTransform="rotate(89.628 16.786 62.189) scale(105.002 105.105)"><stop stop-color="#FFE186"/><stop offset="1" stop-color="#FFBF1B"/></radialGradient><clipPath id="aoclip0"/></defs></symbol><symbol viewBox="0 0 15 15" id="location" xmlns="http://www.w3.org/2000/svg"><path d="M7.5 0a5.529 5.529 0 00-5.522 5.522c0 .795.162 1.553.482 2.255 1.381 3.02 4.028 6.21 4.807 7.116a.307.307 0 00.466 0c.778-.905 3.425-4.095 4.806-7.116.32-.702.483-1.46.483-2.255A5.53 5.53 0 007.5 0zm0 8.39a2.872 2.872 0 01-2.87-2.867A2.872 2.872 0 017.5 2.654a2.872 2.872 0 012.868 2.868A2.872 2.872 0 017.5 8.391z"/></symbol><symbol viewBox="0 0 15 15" id="mail" xmlns="http://www.w3.org/2000/svg"><path d="M1.44 5.24c.19.134.761.532 1.716 1.193.954.661 1.685 1.17 2.193 1.527l.355.256c.182.131.332.237.452.318.12.08.265.172.436.272.17.1.33.176.481.226.15.05.29.075.419.075h.016c.129 0 .268-.025.419-.075.15-.05.311-.126.481-.226.17-.1.316-.191.436-.272.12-.08.27-.187.452-.318l.355-.256 3.918-2.72a3.976 3.976 0 001.02-1.03A2.21 2.21 0 0015 2.947c0-.369-.133-.684-.398-.946a1.294 1.294 0 00-.941-.394H1.339c-.43 0-.76.145-.992.436C.116 2.333 0 2.696 0 3.13c0 .351.154.732.46 1.142.307.41.634.733.98.967z"/><path d="M14.163 6.136a174.174 174.174 0 00-4.169 2.888 20.05 20.05 0 01-.774.548 4.779 4.779 0 01-.79.402c-.33.137-.637.205-.921.205h-.017a2.41 2.41 0 01-.921-.205 4.782 4.782 0 01-.791-.402 19.826 19.826 0 01-.774-.548c-.754-.553-2.14-1.515-4.16-2.888A4.433 4.433 0 010 5.408v6.646c0 .368.131.683.393.946.263.262.578.393.946.393h12.322c.368 0 .683-.13.946-.393a1.29 1.29 0 00.393-.946V5.408c-.24.267-.519.51-.837.728z"/></symbol><symbol viewBox="0 0 20 21" id="map" xmlns="http://www.w3.org/2000/svg"><path d="M19.808 3.946l-5-2.382c-.004-.002-.007-.001-.01-.003a.321.321 0 00-.123-.027l-.008-.002-.02.002a.295.295 0 00-.09.018l-.021.007L10 3.544 5.465 1.56l-.007-.001a.327.327 0 00-.114-.024l-.01-.002-.019.002a.329.329 0 00-.088.017c-.006.003-.012.003-.018.005L.21 3.6a.34.34 0 00-.21.314v14.637c0 .113.055.219.146.282a.33.33 0 00.311.035l4.872-1.99 4.54 1.986c.005.002.01.001.014.003a.32.32 0 00.117.025c.04 0 .08-.01.117-.025.005-.002.01 0 .014-.003l4.54-1.986 4.872 1.99a.327.327 0 00.31-.035.343.343 0 00.147-.282V4.255a.34.34 0 00-.192-.309zM5.667 2.39l4 1.75v13.896l-4-1.75V2.388zm13.666 15.66L15 16.279V2.407l4.333 2.065v13.577z" fill-opacity=".22"/></symbol><symbol viewBox="0 0 15 15" id="phon-footer" xmlns="http://www.w3.org/2000/svg"><g clip-path="url(#asclip0)"><path d="M11.404 9.923c-.49-.484-1.102-.484-1.589 0a93.17 93.17 0 00-1.108 1.111c-.1.103-.184.125-.306.056-.24-.13-.496-.237-.727-.38-1.077-.678-1.98-1.549-2.778-2.529-.397-.487-.75-1.008-.996-1.595-.05-.118-.04-.196.056-.293.372-.359.734-.727 1.099-1.096.509-.512.509-1.11-.003-1.626-.29-.293-.58-.58-.871-.874-.3-.3-.596-.602-.899-.899-.49-.477-1.102-.477-1.589.003C1.32 2.17.96 2.547.58 2.91a1.81 1.81 0 00-.568 1.22c-.06.778.131 1.512.4 2.226.549 1.48 1.385 2.794 2.4 3.999a14.855 14.855 0 004.919 3.849c.861.418 1.754.74 2.725.792.668.038 1.248-.13 1.714-.652.318-.356.677-.68 1.014-1.02.5-.506.502-1.118.006-1.618a499.827 499.827 0 00-1.785-1.782zm-.596-2.488l1.152-.197a5.148 5.148 0 00-1.44-2.778 5.12 5.12 0 00-2.933-1.464l-.163 1.158a3.972 3.972 0 012.273 1.133c.587.587.97 1.33 1.11 2.148zm1.801-5.007A8.493 8.493 0 007.739 0l-.162 1.158a7.364 7.364 0 014.208 2.098 7.358 7.358 0 012.063 3.98L15 7.038a8.555 8.555 0 00-2.391-4.61z"/></g><defs><clipPath id="asclip0"/></defs></symbol><symbol viewBox="0 0 19 20" id="phone" xmlns="http://www.w3.org/2000/svg"><g clip-path="url(#atclip0)"><path d="M18.574 15.333l-2.934-2.997c-.585-.594-1.553-.576-2.157.042l-1.479 1.51a45.78 45.78 0 01-.291-.167c-.934-.528-2.212-1.252-3.556-2.626C6.808 9.718 6.099 8.412 5.58 7.458c-.055-.101-.107-.199-.159-.291l.992-1.012.488-.499c.606-.618.622-1.606.04-2.203L4.005.456C3.423-.139 2.455-.12 1.85.498l-.827.85.023.022a4.911 4.911 0 00-.682 1.227A5.177 5.177 0 00.06 3.842c-.387 3.28 1.08 6.278 5.064 10.346 5.506 5.623 9.944 5.198 10.135 5.177a4.875 4.875 0 002.42-1.006l.018.016.838-.838c.604-.618.622-1.607.039-2.204z" fill-opacity=".22"/></g><defs><clipPath id="atclip0"><path d="M0 0h19v19.402H0z"/></clipPath></defs></symbol><symbol viewBox="0 0 15 15" id="placeholder-1" xmlns="http://www.w3.org/2000/svg"><path d="M7.5 0a5.529 5.529 0 00-5.522 5.522c0 .795.162 1.553.483 2.255 1.38 3.02 4.028 6.21 4.806 7.116a.307.307 0 00.466 0c.778-.905 3.425-4.095 4.807-7.116.32-.702.482-1.46.482-2.255A5.53 5.53 0 007.5 0zm0 8.39a2.872 2.872 0 01-2.87-2.867A2.872 2.872 0 017.5 2.654a2.872 2.872 0 012.868 2.868A2.872 2.872 0 017.5 8.391z"/></symbol><symbol viewBox="0 0 60 60" id="question-1" xmlns="http://www.w3.org/2000/svg"><g clip-path="url(#avclip0)"><path d="M60 26.153V57.94c0 .494-.203.942-.533 1.262a1.756 1.756 0 01-1.232.503H1.765c-.48 0-.914-.192-1.232-.503A1.755 1.755 0 010 57.941V26.153h60z"/><path d="M60 26.153V57.94c0 .494-.203.942-.533 1.262a1.756 1.756 0 01-1.232.503H30V26.153h30z"/><path d="M59.467 59.204c-.318.31-.752.502-1.232.502H1.765c-.48 0-.915-.192-1.232-.502L30 31.395l29.467 27.809z"/><path d="M59.467 59.204c-.318.31-.752.502-1.232.502H30v-28.31l29.467 27.808z"/><path d="M60 26.153l-9.315 6.142-.006.006-19.707 12.996a1.763 1.763 0 01-1.944 0L9.318 32.3l-.003-.004L0 26.153 28.833.733a1.765 1.765 0 012.334 0L60 26.154z"/><path d="M60 26.153l-9.315 6.142-.006.006-19.707 12.996a1.756 1.756 0 01-.972.291V.294c.416 0 .833.146 1.167.44L60 26.153z"/><path d="M50.685 10.095v22.2l-.006.006-19.707 12.997c-.294.194-.633.29-.972.29-.339 0-.677-.096-.972-.29l-19.71-13-.003-.003v-22.2c0-.974.79-1.764 1.765-1.764h37.84c.975 0 1.765.79 1.765 1.764z"/><path d="M50.685 10.095v22.2l-.006.006-19.707 12.997c-.294.194-.633.29-.972.29V8.331h18.92c.975 0 1.765.79 1.765 1.764z"/></g><defs><clipPath id="avclip0"><path d="M0 0h60v60H0z"/></clipPath></defs></symbol><symbol viewBox="0 0 90 90" id="repairing-1" xmlns="http://www.w3.org/2000/svg"><path d="M79.478.394l.002 18.085-10.123 7.003-10.119-7.007L59.23.39c-6.274 3.544-10.52 10.264-10.52 17.992 0 3.104.743 6.026 1.97 8.665L2.353 75.38c-3.137 3.126-3.132 8.208-.007 11.336a8.018 8.018 0 0011.343-.002L62.6 37.799s4.38 1.217 6.75 1.219C80.757 39.027 90 29.775 90 18.373c-.002-7.717-4.246-14.437-10.522-17.98z"/><path d="M7.986 83.21a2.133 2.133 0 100-4.266 2.133 2.133 0 000 4.266zM69.642 66.769L42.69 39.817 38.807 43.7l26.951 26.952 2.38 6.562L80.534 89.61l8.066-8.066-12.396-12.396-6.562-2.38z"/><path d="M37.685 50.854L2.87 16.042a8.6 8.6 0 010-12.167C6.224.524 11.676.518 15.03 3.883l34.816 34.812-12.16 12.16z"/><path d="M39.867 40.877a2.133 2.133 0 01-3.016 0L7.431 11.456a2.133 2.133 0 113.015-3.016l29.421 29.42a2.133 2.133 0 010 3.017zm12.426-1.615l-14.04 14.04a2.133 2.133 0 01-3.016-3.015l14.04-14.04a2.133 2.133 0 113.016 3.015z"/></symbol><symbol viewBox="0 0 60 60" id="set-square-1" xmlns="http://www.w3.org/2000/svg"><g clip-path="url(#axclip0)"><path d="M58.497 55.52L41.493 38.517l-2.554-2.554L4.48 1.503C2.827-.15 0 1.022 0 3.359v54.674c0 .544.22 1.036.576 1.392A1.96 1.96 0 001.967 60h54.675c2.337 0 3.508-2.827 1.855-4.48zm-26.555-6.117H11.795a1.195 1.195 0 01-1.198-1.198V28.058c0-1.067 1.29-1.602 2.045-.847l10.074 10.074 10.073 10.073c.755.755.22 2.045-.847 2.045z"/><path d="M56.642 60H1.967a1.96 1.96 0 01-1.39-.577l10.37-10.371c.218.217.517.35.848.35h20.147c1.068 0 1.602-1.29.847-2.044L22.716 37.284l8.773-8.772 7.45 7.45 2.554 2.555L58.497 55.52c1.653 1.653.483 4.48-1.855 4.48z"/><path d="M15.31 12.334l-1.992 1.993a1.807 1.807 0 01-2.555-2.555l1.993-1.992 2.554 2.554zm8.728 8.728l-1.992 1.992A1.807 1.807 0 0119.49 20.5l1.993-1.993 2.555 2.555zm8.727 8.727l-1.992 1.993a1.806 1.806 0 11-2.555-2.554l1.994-1.993 2.553 2.554z"/><path d="M32.765 29.789l-1.993 1.994a1.806 1.806 0 01-2.554 0l3.27-3.27 1.277 1.276zm8.728 8.728l-1.992 1.993a1.807 1.807 0 01-2.554-2.555l1.992-1.992 2.554 2.554zm8.728 8.728l-1.993 1.992a1.807 1.807 0 01-2.555-2.554l1.993-1.993 2.555 2.555zM59.472 37.463l-3.917 3.917A1.806 1.806 0 1153 38.825l.681-.68-15.912-15.912L21.855 6.319l-.68.68a1.806 1.806 0 11-2.555-2.555L22.537.53a1.806 1.806 0 112.555 2.555l-.682.682L40.323 19.68l15.913 15.91.681-.682a1.808 1.808 0 012.555 0 1.809 1.809 0 010 2.555z"/><path d="M59.472 37.463l-3.917 3.917a1.806 1.806 0 11-2.554-2.555l.68-.68-15.912-15.912 2.554-2.555L56.236 35.59l.681-.681a1.808 1.808 0 012.555 0 1.809 1.809 0 010 2.554z"/></g><defs><clipPath id="axclip0"><path d="M0 0h60v60H0z"/></clipPath></defs></symbol><symbol viewBox="0 0 60 60" id="taxes-1" xmlns="http://www.w3.org/2000/svg"><g clip-path="url(#ayclip0)"><path d="M47.173 1.655v53.867c0 .978-.794 1.772-1.772 1.772H3.998a1.772 1.772 0 01-1.771-1.772V1.655c0-.978.793-1.772 1.771-1.772h41.403c.978 0 1.772.794 1.772 1.772z"/><path d="M47.173 1.654v53.868c0 .977-.793 1.771-1.772 1.771H25.752V-.117h19.65c.978 0 1.771.794 1.771 1.771z"/><path d="M56.05 51.806a6.306 6.306 0 11-12.61 0 6.306 6.306 0 0112.61 0z"/><path d="M49.745 59.883c-4.453 0-8.076-3.623-8.076-8.077s3.623-8.077 8.076-8.077c4.454 0 8.078 3.623 8.078 8.077s-3.624 8.077-8.078 8.077zm0-12.61a4.539 4.539 0 00-4.533 4.533c0 2.5 2.033 4.534 4.533 4.534 2.5 0 4.534-2.034 4.534-4.534s-2.034-4.533-4.534-4.533z"/><path d="M56.051 51.807a6.305 6.305 0 01-6.287 6.304v-12.61a6.306 6.306 0 016.287 6.306z"/><path d="M49.764 43.729v3.543a4.54 4.54 0 014.515 4.535 4.539 4.539 0 01-4.515 4.532v3.544c4.446-.01 8.059-3.63 8.059-8.076 0-4.448-3.613-8.068-8.06-8.078zM38.327 21.21H11.072a1.772 1.772 0 010-3.543h27.255a1.771 1.771 0 110 3.543zm-15.709 6.228H11.072a1.772 1.772 0 010-3.544h11.546a1.772 1.772 0 010 3.544zM38.327 27.438H32.14a1.772 1.772 0 010-3.544h6.187a1.772 1.772 0 010 3.544zM22.618 33.628H11.072a1.772 1.772 0 010-3.543h11.546a1.771 1.771 0 110 3.543zM38.327 33.628H32.14a1.772 1.772 0 010-3.543h6.187a1.771 1.771 0 110 3.543zm.083 7.277h-8.43a1.772 1.772 0 010-3.543h8.428a1.772 1.772 0 010 3.543zM47.993 51.806a6.306 6.306 0 11-12.611 0 6.306 6.306 0 0112.61 0z"/><path d="M41.687 59.883c-4.453 0-8.077-3.623-8.077-8.077s3.624-8.077 8.077-8.077c4.454 0 8.077 3.623 8.077 8.077s-3.623 8.077-8.077 8.077zm0-12.61a4.539 4.539 0 00-4.534 4.533c0 2.5 2.034 4.534 4.534 4.534s4.534-2.034 4.534-4.534-2.034-4.533-4.534-4.533z"/><path d="M47.993 51.807a6.305 6.305 0 01-6.287 6.304v-12.61a6.306 6.306 0 016.287 6.306z"/><path d="M41.706 43.729v3.543a4.539 4.539 0 014.515 4.535 4.538 4.538 0 01-4.515 4.532v3.544c4.445-.01 8.058-3.63 8.058-8.076 0-4.448-3.613-8.068-8.058-8.078zM39.935 51.806a6.305 6.305 0 11-12.61 0 6.305 6.305 0 0112.61 0z"/><path d="M33.629 59.883c-4.454 0-8.077-3.623-8.077-8.077s3.623-8.077 8.077-8.077 8.077 3.623 8.077 8.077-3.623 8.077-8.077 8.077zm0-12.61a4.539 4.539 0 00-4.534 4.533c0 2.5 2.034 4.534 4.534 4.534s4.534-2.034 4.534-4.534-2.034-4.533-4.534-4.533z"/><path d="M39.935 51.807a6.305 6.305 0 01-6.288 6.304v-12.61a6.306 6.306 0 016.288 6.306z"/><path d="M33.648 43.729v3.543a4.539 4.539 0 014.515 4.535 4.538 4.538 0 01-4.515 4.532v3.544c4.445-.01 8.058-3.63 8.058-8.076 0-4.448-3.613-8.068-8.059-8.078z"/></g><defs><clipPath id="ayclip0"><path d="M0 0h60v60H0z"/></clipPath></defs></symbol><symbol viewBox="0 0 15 15" id="telephone-1" xmlns="http://www.w3.org/2000/svg"><g clip-path="url(#azclip0)"><path d="M11.404 9.923c-.49-.484-1.102-.484-1.589 0-.371.368-.743.736-1.108 1.111-.1.103-.184.125-.306.056-.24-.13-.496-.237-.727-.38-1.077-.678-1.98-1.549-2.778-2.529-.397-.487-.75-1.008-.996-1.595-.05-.119-.04-.197.056-.293.372-.36.734-.728 1.099-1.096.509-.512.509-1.111-.003-1.626-.29-.294-.58-.58-.871-.874-.3-.3-.596-.603-.899-.9-.49-.477-1.102-.477-1.589.004C1.32 2.169.96 2.547.58 2.909a1.81 1.81 0 00-.568 1.22c-.06.778.131 1.511.4 2.226.549 1.48 1.385 2.794 2.4 3.999a14.855 14.855 0 004.919 3.848c.861.418 1.754.74 2.725.793.668.038 1.248-.131 1.714-.652.318-.356.677-.68 1.014-1.021.5-.506.502-1.117.006-1.617-.593-.596-1.189-1.19-1.785-1.782zm-.596-2.488l1.152-.197a5.148 5.148 0 00-1.44-2.778 5.12 5.12 0 00-2.933-1.463l-.163 1.158a3.972 3.972 0 012.273 1.133c.587.586.97 1.33 1.11 2.147zm1.8-5.007A8.493 8.493 0 007.74 0l-.162 1.158a7.364 7.364 0 014.207 2.098 7.359 7.359 0 012.064 3.98L15 7.039a8.555 8.555 0 00-2.39-4.61z"/></g><defs><clipPath id="azclip0"/></defs></symbol><symbol viewBox="0 0 25 25" id="tick" xmlns="http://www.w3.org/2000/svg"><g clip-path="url(#baclip0)"><path d="M24.634 3.686a1.25 1.25 0 00-1.768 0L7.89 18.662l-5.756-5.756a1.25 1.25 0 00-1.768 1.768l6.64 6.64a1.25 1.25 0 001.768 0l15.86-15.86a1.25 1.25 0 000-1.768z"/></g><defs><clipPath id="baclip0"/></defs></symbol><symbol viewBox="0 0 20 20" id="user" xmlns="http://www.w3.org/2000/svg"><g clip-path="url(#bbclip0)" fill-opacity=".22"><path d="M10 9.489c2.224 0 4.027-2.124 4.027-4.744C14.027 2.125 13.435 0 10 0 6.566 0 5.974 2.124 5.974 4.745c0 2.62 1.802 4.744 4.026 4.744zm-7.605 7.244c0-.16-.002-.044 0 0zm15.21.125c.002-.044 0-.303 0 0zM17.596 16.542c-.075-4.565-.689-5.866-5.392-6.689 0 0-.661.818-2.204.818-1.543 0-2.205-.818-2.205-.818-4.651.814-5.303 2.096-5.389 6.54-.007.363-.01.382-.011.34v.48s1.12 2.19 7.605 2.19 7.604-2.19 7.604-2.19v-.355c0 .026-.003-.024-.008-.316z"/></g><defs><clipPath id="bbclip0"><path d="M0 0h20v19.402H0z"/></clipPath></defs></symbol><symbol viewBox="0 0 22 8" id="width" xmlns="http://www.w3.org/2000/svg"><path d="M21.62 4.354a.5.5 0 000-.708L18.436.464a.5.5 0 10-.707.708L20.558 4 17.73 6.828a.5.5 0 00.707.708l3.182-3.182zM6.132 4.5h15.133v-1H6.133v1z"/><path d="M.647 4.354a.5.5 0 010-.708L3.828.464a.5.5 0 01.708.708L1.707 4l2.829 2.828a.5.5 0 11-.708.708L.647 4.354zm15.486.146H1v-1h15.133v1z"/></symbol><symbol viewBox="0 0 60 60" id="worker-1" xmlns="http://www.w3.org/2000/svg"><path d="M37.997 32.325v11.161H22.004V32.325a51.303 51.303 0 0115.993 0z"/><path d="M42.115 46.716v-13.57a51.488 51.488 0 00-4.118-.821v11.16H22.004v-11.16a51.53 51.53 0 00-4.12.821v13.57h-3.03V60h30.292V46.716h-3.03z"/><path d="M35.235 31.968v.574a5.241 5.241 0 01-5.234 5.236 5.242 5.242 0 01-5.236-5.236v-.574a51.303 51.303 0 0110.47 0z"/><path d="M33.846 28.269v4.273a3.846 3.846 0 11-7.692 0v-4.273h7.692z"/><path d="M33.846 28.269v3.425a9.226 9.226 0 01-3.844.835H30a9.206 9.206 0 01-3.846-.836v-3.424h7.692z"/><path d="M40.263 14.783l-.244 1.805-.834 6.174a9.268 9.268 0 01-9.183 8.03H30a9.27 9.27 0 01-9.184-8.03l-.833-6.174-.244-1.805h20.525z"/><path d="M19.738 14.783l.244 1.805h3.44l.541.83 1.103 1.689h9.87l1.102-1.69.54-.83h3.44l.245-1.804H19.74zM42.273 14.783H17.728a12.2 12.2 0 01.48-3.404h23.584c.313 1.08.48 2.223.48 3.404zM33.172 1.125l-.785 10.254h-4.772L26.83 1.125l-.053-.69A12.132 12.132 0 0130 0c1.116 0 2.197.152 3.224.434l-.053.691z"/><path d="M36.58 14.782l-.542.83-1.103 1.688h-9.869l-1.103-1.689-.542-.829H36.58z"/><path d="M27.615 11.38h13.128a10.748 10.748 0 00-7.518-10.25l-.053-.005-.695 9.079h-4.952l-.695-9.079-.053.005a10.748 10.748 0 00-7.518 10.25h8.356zm-3.652 4.232h12.075l.542-.83H23.42l.542.83z"/><path d="M25.445 1.648l.82 8.555h-6.943a10.749 10.749 0 016.123-8.555zm15.234 8.555h-6.943l.82-8.555a10.748 10.748 0 016.123 8.555zM17.884 33.147l-6.73 2.423L7.44 46.716h10.445m24.23-13.569l6.73 2.423 3.716 11.146H42.115M17.885 46.716H9.307V60h8.578V46.716zm32.809 0h-8.579V60h8.578V46.716zM37.997 47.666H22.004v2.628h15.993v-2.627zm-.905 2.628H22.91v8.07h14.182v-8.07z"/><path d="M37.092 50.294H22.91v1.18h14.182v-1.18zM22.375 37.942h-4.862v3.75h4.862v-3.75z"/><path d="M21.403 38.914h-2.917v1.806h2.917v-1.806zM42.488 37.942h-4.862v3.75h4.862v-3.75z"/><path d="M41.516 38.914h-2.918v1.806h2.918v-1.806zM17.885 46.716H9.307v2.2h8.578v-2.2zm32.809 0h-8.579v2.2h8.578v-2.2z"/></symbol><symbol viewBox="0 0 10 15" id="yellow-right-arrow" xmlns="http://www.w3.org/2000/svg"><path d="M8.891 8.391l-5.59 5.59a1.26 1.26 0 01-1.782 0l7.372-5.59zm0 0a1.258 1.258 0 000-1.782m0 1.782V6.609m0 0l-5.59-5.59m5.59 5.59l-5.59-5.59m0 0a1.26 1.26 0 00-1.782 0h1.783zM1.52 12.2a1.26 1.26 0 000 1.782V1.019a1.26 1.26 0 000 1.783L6.218 7.5l-4.699 4.698z"/></symbol></svg>